<?xml version="1.0" encoding="UTF-8"?>
<svg version="1.1" xmlns="http://www.w3.org/2000/svg" width="1179" height="2556">
<path d="M0 0 C389.07 0 778.14 0 1179 0 C1179 843.48 1179 1686.96 1179 2556 C789.93 2556 400.86 2556 0 2556 C0 1712.52 0 869.04 0 0 Z " fill="#002D4D" transform="translate(0,0)"/>
<path d="M0 0 C11.24398315 2.24879663 11.24398315 2.24879663 16.06640625 3.76953125 C17.13052734 4.10146484 18.19464844 4.43339844 19.29101562 4.77539062 C20.37060547 5.11763672 21.45019531 5.45988281 22.5625 5.8125 C37.2566562 10.42860663 52.03464144 14.73014836 66.83398438 18.99414062 C79.61970109 22.67825 92.39448878 26.38144699 105.10913086 30.30517578 C114.10323606 33.06477661 123.14623765 35.65032918 132.1875 38.25 C146.71469414 42.42798991 161.19125485 46.75178972 175.63549805 51.20800781 C189.53017722 55.49356149 203.47504887 59.58341943 217.46728516 63.53833008 C233.72019317 68.13351942 249.8622299 73.00363472 265.97851562 78.05859375 C274.84893388 80.8223569 283.75170702 83.43350581 292.75 85.75 C300.99645748 87.91083645 309.10883353 90.49261606 317.24154663 93.04226685 C324.65450997 95.36457426 332.0658949 97.64982068 339.5625 99.6875 C349.09711052 102.27913694 358.54615247 105.1290911 368 108 C370.66922871 108.81003469 373.33851942 109.61986499 376.0078125 110.4296875 C376.71318649 110.64369202 377.41856049 110.85769653 378.14530945 111.07818604 C401.28403247 118.13223634 401.28403247 118.13223634 424.53125 124.81640625 C426.25601563 125.29557495 426.25601563 125.29557495 428.015625 125.78442383 C430.3063395 126.41921754 432.59798442 127.05066495 434.890625 127.6784668 C435.92703125 127.9650415 436.9634375 128.25161621 438.03125 128.546875 C438.96517578 128.80307617 439.89910156 129.05927734 440.86132812 129.32324219 C443 130 443 130 444 131 C444.09504251 133.52541002 444.12557158 136.02337126 444.11352539 138.54907227 C444.11367142 139.33925751 444.11381744 140.12944275 444.1139679 140.943573 C444.11326857 143.56787822 444.10547527 146.19211336 444.09765625 148.81640625 C444.09579214 150.63101665 444.0943682 152.44562756 444.09336853 154.26023865 C444.08954279 159.0459023 444.07971204 163.8315358 444.06866455 168.6171875 C444.05845163 173.49674064 444.05387117 178.37629864 444.04882812 183.25585938 C444.03808982 192.83725286 444.02101273 202.41862393 444 212 C441.43406676 211.3632527 438.86844166 210.72530614 436.30297852 210.08666992 C435.58047157 209.90750786 434.85796463 209.72834579 434.11356354 209.54375458 C429.00832022 208.27151589 423.96153818 206.87636919 418.9375 205.3125 C410.86199808 202.84287058 402.75867617 200.47845476 394.6434021 198.14343262 C383.71911847 194.99922628 372.83301297 191.77552787 362.03759766 188.20727539 C357.42604043 186.69828217 352.85199774 185.4649425 348.10473633 184.46240234 C342.79051977 183.29488974 337.61891877 181.58211415 332.4375 179.9375 C324.49700718 177.44139093 316.53301233 175.02331472 308.5625 172.625 C307.91794861 172.43102631 307.27339722 172.23705261 306.60931396 172.03720093 C296.58089822 169.02461928 286.51442961 166.16743844 276.42016602 163.38330078 C271.05568969 161.89261249 265.76457457 160.31171952 260.5 158.5 C254.33067698 156.37736944 248.10351606 154.60159273 241.8125 152.875 C229.50261545 149.49348955 217.3058913 145.77760766 205.11450195 141.99560547 C196.91094791 139.45760822 188.68548624 137.05116776 180.40434265 134.77862549 C174.02007984 133.02167748 167.69303582 131.10698859 161.375 129.125 C151.83149317 126.15963075 142.26371704 123.29790097 132.66479492 120.51757812 C125.99594514 118.58525728 119.33741058 116.62155099 112.6875 114.625 C111.85105957 114.37411621 111.01461914 114.12323242 110.15283203 113.86474609 C107.08950662 112.9429864 104.03501666 112.01167222 101 111 C101 367.74 101 624.48 101 889 C88.52363952 892.79715319 76.20369147 896.51755523 63.65649414 899.96362305 C56.21214528 902.03279883 48.82079487 904.25582986 41.43359375 906.51953125 C40.40670944 906.83400711 39.37982513 907.14848297 38.32182312 907.4724884 C33.11288629 909.06972964 27.9065646 910.67503676 22.70288086 912.28930664 C20.75768303 912.88829172 18.81245325 913.48717305 16.8671875 914.0859375 C15.97644028 914.36480301 15.08569305 914.64366852 14.16795349 914.9309845 C13.32732864 915.18885239 12.4867038 915.44672028 11.62060547 915.71240234 C10.89436981 915.93777679 10.16813416 916.16315125 9.41989136 916.39535522 C6.3296992 917.16748433 3.15318275 917.54954532 0 918 C0 615.06 0 312.12 0 0 Z " fill="#FDFEFE" transform="translate(405,1251)"/>
<path d="M0 0 C25.24055302 6.88378719 25.24055302 6.88378719 36.65087891 10.37060547 C41.62111011 11.88567583 46.59487796 13.38881494 51.56930542 14.89004517 C54.96897553 15.91611916 58.36833079 16.94322946 61.76757812 17.97070312 C62.90654541 18.31496338 64.0455127 18.65922363 65.21899414 19.01391602 C67.53674863 19.71460972 69.85445675 20.41545679 72.17211914 21.11645508 C95.36400286 28.27554477 95.36400286 28.27554477 118.75 34.75 C127.57297129 37.06437684 136.25603346 39.82796402 144.95605469 42.56347656 C158.85175439 46.92656651 172.83948409 50.96208779 186.83398438 54.99414062 C199.61970109 58.67825 212.39448878 62.38144699 225.10913086 66.30517578 C234.91381055 69.31347973 244.77645619 72.11947752 254.63269043 74.95294189 C268.31704452 78.89122121 281.94766862 82.98761406 295.54760742 87.20800781 C303.55202403 89.68522315 311.58149524 92.02323737 319.66130066 94.24279785 C325.49594124 95.84837018 331.285348 97.57320411 337.0625 99.375 C345.33936372 101.92943084 353.64972891 104.32243146 362 106.625 C369.91243293 108.81014933 377.70469754 111.14969904 385.46875 113.81640625 C394.57492726 116.86858735 403.83325294 119.45420115 413.125 121.875 C423.48614296 124.67086397 433.73322931 127.87533066 444 131 C444 157.73 444 184.46 444 212 C434.99926021 210.87490753 434.99926021 210.87490753 430.85546875 209.58203125 C429.94095947 209.30012939 429.0264502 209.01822754 428.08422852 208.7277832 C427.12830811 208.42573975 426.1723877 208.12369629 425.1875 207.8125 C423.67724243 207.34493286 423.67724243 207.34493286 422.13647461 206.86791992 C417.36139138 205.38537457 412.59590522 203.87407127 407.8359375 202.34375 C399.30194632 199.60357241 390.80355039 197.13740702 382.08862305 195.04223633 C378.36575045 194.1168405 374.72136288 193.01580264 371.06640625 191.84765625 C360.8822675 188.6237372 350.65102596 185.55809492 340.41943359 182.48876953 C337.13709017 181.50362866 333.85564136 180.51554679 330.57421875 179.52734375 C320.41518427 176.47447333 310.24917945 173.47514978 300.01873779 170.67025757 C293.76294127 168.95076933 287.56537079 167.06678257 281.375 165.125 C267.22036011 160.72977102 253.00854115 156.54328742 238.74609375 152.51171875 C223.11863211 148.09235579 207.58614642 143.370988 192.109375 138.44921875 C183.19455592 135.59778643 183.19455592 135.59778643 174.08984375 133.45703125 C168.78280437 132.29642638 163.61104497 130.57961496 158.4375 128.9375 C150.99873146 126.59745976 143.53748067 124.33227902 136.07009888 122.08547974 C134.19275862 121.52039552 132.31597308 120.95346944 130.43920898 120.38647461 C120.65818137 117.45002577 110.84604528 114.73501258 101 112 C101 368.41 101 624.82 101 889 C90.87142587 892.37619138 90.87142587 892.37619138 86.67407227 893.63818359 C85.7318129 893.92212982 84.78955353 894.20607605 83.81874084 894.49862671 C82.82797043 894.79556427 81.83720001 895.09250183 80.81640625 895.3984375 C79.76202866 895.71527496 78.70765106 896.03211243 77.62132263 896.35855103 C75.39692591 897.02650949 73.17231775 897.69376418 70.94750977 898.36035156 C67.60296355 899.36287115 64.25945242 900.36878755 60.91601562 901.375 C51.59875296 904.17320318 42.28100143 906.9530861 32.90234375 909.5390625 C21.90302421 912.57968177 10.95537917 915.80468107 0 919 C0 615.73 0 312.46 0 0 Z " fill="#FEFEFE" transform="translate(270,1092)"/>
<path d="M0 0 C0.82338867 -0.00161133 1.64677734 -0.00322266 2.49511719 -0.00488281 C8.1071882 0.09658091 13.26221253 0.96991871 18.6875 2.375 C19.99654297 2.69210937 19.99654297 2.69210937 21.33203125 3.015625 C32.59429225 6.1812335 41.98754914 11.60667485 50.6875 19.375 C51.45964844 20.05304687 52.23179687 20.73109375 53.02734375 21.4296875 C63.89465911 31.57251517 72.70526013 46.9195091 73.89624023 62.02197266 C74.66753632 85.32680642 71.90814671 102.65310652 56.25 120.625 C42.87620269 134.90243227 25.95916929 144.60236469 6.03125 145.74609375 C-15.8320711 146.29480443 -35.02786305 139.20958852 -51.0625 124 C-64.5450899 109.71295963 -71.72824014 90.69453995 -71.52734375 71.140625 C-70.3926969 51.25336021 -63.35938621 33.17035129 -48.67578125 19.28125 C-43.54923331 15.14611711 -37.9633204 11.74017017 -32.3125 8.375 C-31.590625 7.94058594 -30.86875 7.50617187 -30.125 7.05859375 C-20.64508004 1.84872395 -10.67650591 0.01980799 0 0 Z " fill="#032F4F" transform="translate(269.3125,516.625)"/>
<path d="M0 0 C5.71393838 0 10.03376491 0.01326566 15.4375 0.9375 C20.9946574 1.79567873 26.4545912 2.24999965 32.0625 2.5 C37.11103209 2.73064626 42.01285725 3.06458085 47 3.9375 C53.49475581 5.04596022 59.99765484 5.52175063 66.5625 6 C74.90454006 6.6087678 83.23760505 7.24904714 91.5625 8.0625 C92.4069165 8.14177734 93.25133301 8.22105469 94.12133789 8.30273438 C99.87958965 8.87958965 99.87958965 8.87958965 101 10 C101.09622036 11.70825688 101.12187628 13.42052114 101.12025452 15.13148499 C101.12231651 16.79954948 101.12231651 16.79954948 101.12442017 18.50131226 C101.11902725 20.34736557 101.11902725 20.34736557 101.11352539 22.23071289 C101.11367142 23.51833023 101.11381744 24.80594757 101.1139679 26.13258362 C101.11425586 29.6737476 101.10835936 33.21487799 101.10139394 36.75603414 C101.09516017 40.45294988 101.09455658 44.14986631 101.09336853 47.8467865 C101.09025528 54.85203899 101.08204199 61.85727595 101.07201904 68.86252159 C101.05877239 78.32545604 101.05335794 87.78839472 101.04751682 97.2513361 C101.03810209 112.16756904 101.01818313 127.08376921 101 142 C67.67 142 34.34 142 0 142 C0 95.14 0 48.28 0 0 Z " fill="#FBFCFC" transform="translate(537,1711)"/>
<path d="M0 0 C33.33 0 66.66 0 101 0 C101 43.89 101 87.78 101 133 C95.72 133.33 90.44 133.66 85 134 C81.23937846 134.42294253 77.49890394 134.87280013 73.75 135.375 C61.50778199 136.93534899 49.24021652 137.96247243 36.93847656 138.90966797 C28.47151004 139.57108924 20.08037718 140.4368599 11.66821289 141.61303711 C7.79814442 142.02129392 3.89154257 142 0 142 C0 95.14 0 48.28 0 0 Z " fill="#FBFCFC" transform="translate(537,1866)"/>
<path d="M0 0 C11.14233908 1.11423391 11.14233908 1.11423391 16.8125 2.4375 C22.41199689 3.68993904 27.99071607 4.67516736 33.671875 5.47265625 C40.97373606 6.62964128 48.18361805 8.24689609 55.39770508 9.85229492 C63.66866073 11.69020809 71.88563878 13.42244842 80.27734375 14.60546875 C87.0317087 15.58422178 93.43112239 17.12317782 100 19 C100 62.56 100 106.12 100 151 C75.25226627 149.92401158 75.25226627 149.92401158 66.66015625 148.53125 C62.07611544 147.86590363 57.48890645 147.45972645 52.875 147.0625 C44.05283239 146.29397257 35.24385679 145.43294138 26.4375 144.5 C25.29716309 144.38148682 24.15682617 144.26297363 22.98193359 144.14086914 C21.87285645 144.02219482 20.7637793 143.90352051 19.62109375 143.78125 C18.17367798 143.6275293 18.17367798 143.6275293 16.69702148 143.47070312 C11.11579954 142.76010444 5.5608526 141.85551579 0 141 C0 94.47 0 47.94 0 0 Z " fill="#FDFDFD" transform="translate(537,1556)"/>
<path d="M0 0 C0 43.56 0 87.12 0 132 C-33.27272727 139.39393939 -33.27272727 139.39393939 -43.29296875 141.11328125 C-55.66009314 143.26392991 -67.97100952 145.48869293 -80.18823242 148.38793945 C-86.94261912 149.9415565 -92.90252517 150.40854376 -100 151 C-100 104.47 -100 57.94 -100 10 C-71.78617441 6.61434093 -71.78617441 6.61434093 -59 5.5 C-48.05217707 4.51863846 -37.13499148 3.37696097 -26.22851562 2.00195312 C-17.45380389 0.89825415 -8.8547204 0 0 0 Z " fill="#FDFDFD" transform="translate(637,2012)"/>
<path d="M0 0 C0 43.56 0 87.12 0 132 C-9.24 134.64 -18.48 137.28 -28 140 C-35.93019866 142.4407571 -35.93019866 142.4407571 -43.85644531 144.89428711 C-53.90953846 148.01281523 -64.01467151 150.94843983 -74.125 153.875 C-74.95618347 154.11610504 -75.78736694 154.35721008 -76.64373779 154.60562134 C-79.03539436 155.29884439 -81.42770856 155.98974209 -83.8203125 156.6796875 C-84.52766541 156.88457291 -85.23501831 157.08945831 -85.96380615 157.30055237 C-86.6410675 157.4951152 -87.31832886 157.68967804 -88.01611328 157.89013672 C-88.59499298 158.05697968 -89.17387268 158.22382263 -89.77029419 158.39572144 C-93.16645049 159.31612288 -96.58639174 160.14659794 -100 161 C-100 114.14 -100 67.28 -100 19 C-86.635 16.525 -86.635 16.525 -73 14 C-68.71 13.01 -64.42 12.02 -60 11 C-57.33734751 10.47904625 -54.671166 9.975377 -52 9.5 C-47.30666058 8.64514175 -42.64312071 7.72403655 -38 6.625 C-31.55834416 5.10788458 -25.09678513 3.69445532 -18.625 2.3125 C-17.58988281 2.08578613 -16.55476562 1.85907227 -15.48828125 1.62548828 C-13.99748047 1.3100708 -13.99748047 1.3100708 -12.4765625 0.98828125 C-11.59049316 0.79790283 -10.70442383 0.60752441 -9.79150391 0.41137695 C-7 0 -7 0 0 0 Z " fill="#FDFDFD" transform="translate(637,2158)"/>
<path d="M0 0 C13.49900096 3.37475024 13.49900096 3.37475024 18.2331543 4.82177734 C19.29853928 5.14576508 20.36392426 5.46975281 21.46159363 5.80355835 C22.57125992 6.14424347 23.68092621 6.48492859 24.82421875 6.8359375 C26.00989944 7.19716705 27.19558014 7.55839661 28.41719055 7.93057251 C32.17482589 9.07590101 35.93121536 10.22525027 39.6875 11.375 C59.73688379 17.49841868 79.74125859 23.59766896 100 29 C100 72.56 100 116.12 100 161 C93.62585664 161 90.68434545 160.76214709 85 159 C82.26233183 158.44497523 79.50732267 158.00816903 76.75 157.5625 C70.9879641 156.59491987 65.44280717 155.37551806 59.83178711 153.72705078 C56.90138741 152.97468158 54.0309035 152.51168428 51.03515625 152.09375 C44.01293296 151.04779217 37.11671089 149.59845574 30.1875 148.0625 C20.15110154 145.84917129 10.10970853 143.89557035 0 142 C0 95.14 0 48.28 0 0 Z " fill="#FDFDFD" transform="translate(537,1400)"/>
<path d="M0 0 C26.98125 4.317 26.98125 4.317 39.046875 7.125 C43.71181604 8.19075613 48.41372059 8.89670172 53.1484375 9.578125 C57.47052894 10.21755771 61.72560716 11.10099867 66 12 C67.60278938 12.32719154 69.20566226 12.65397416 70.80859375 12.98046875 C72.55996225 13.34082321 74.31126367 13.70150379 76.0625 14.0625 C76.92117676 14.23700684 77.77985352 14.41151367 78.66455078 14.59130859 C79.46747559 14.75840332 80.27040039 14.92549805 81.09765625 15.09765625 C81.82476807 15.24726807 82.55187988 15.39687988 83.30102539 15.55102539 C85 16 85 16 86 17 C86.09594225 18.58154848 86.1218796 20.16739125 86.12025452 21.75184631 C86.12231651 23.2936985 86.12231651 23.2936985 86.12442017 24.86669922 C86.11902725 26.57249146 86.11902725 26.57249146 86.11352539 28.31274414 C86.11367142 29.50282578 86.11381744 30.69290741 86.1139679 31.91905212 C86.11338894 35.19163274 86.10835981 38.46417107 86.10139394 41.73674321 C86.09515967 45.15338665 86.09455654 48.57003083 86.09336853 51.98667908 C86.09025543 58.46069267 86.08204233 64.93468946 86.07201904 71.40869564 C86.06085725 78.7773792 86.05534729 86.14606355 86.05032361 93.51475346 C86.03985969 108.67651169 86.02226066 123.83825417 86 139 C84.253131 139.00825176 82.50625061 139.01411421 80.7593689 139.01898193 C79.78657675 139.02250546 78.8137846 139.02602898 77.8115139 139.02965927 C74.13007423 138.99082296 70.57556553 138.66625094 66.9140625 138.265625 C66.17392914 138.18632751 65.43379578 138.10703003 64.67123413 138.02532959 C62.32185868 137.77234209 59.97344943 137.51142839 57.625 137.25 C56.15761049 137.09060721 54.69016246 136.93175227 53.22265625 136.7734375 C47.81458347 136.18707431 42.40733956 135.59308667 37 135 C24.79 133.68 12.58 132.36 0 131 C0 87.77 0 44.54 0 0 Z " fill="#FDFDFD" transform="translate(656,1579)"/>
<path d="M0 0 C0 40.59 0 81.18 0 123 C-10.56 124.98 -21.12 126.96 -32 129 C-40.92356908 130.93655375 -40.92356908 130.93655375 -49.83984375 132.90625 C-55.55003967 134.1496942 -61.29332616 135.13215361 -67.06982422 136.01245117 C-70.50155387 136.54210053 -73.83915601 137.18971692 -77.19140625 138.08203125 C-81 139 -81 139 -86 139 C-86 95.77 -86 52.54 -86 8 C-75.77 7.01 -65.54 6.02 -55 5 C-45.35678467 3.81766135 -45.35678467 3.81766135 -35.71484375 2.625 C-29.49115029 1.90084964 -23.26885592 1.52007197 -17.00878906 1.29052734 C-11.26497986 1.07745477 -5.74317753 0 0 0 Z " fill="#FDFDFD" transform="translate(742,2001)"/>
<path d="M0 0 C4.45022653 0.63574665 7.96796569 1.15470684 12.1171875 2.453125 C13.0453125 2.74018311 13.9734375 3.02724121 14.9296875 3.32299805 C15.90164063 3.62890869 16.87359375 3.93481934 17.875 4.25 C19.9347189 4.88729088 21.9946162 5.52400545 24.0546875 6.16015625 C25.5701416 6.63026123 25.5701416 6.63026123 27.11621094 7.10986328 C31.06942039 8.33009708 35.03128508 9.51877867 39 10.6875 C40.02577148 10.98974487 40.02577148 10.98974487 41.07226562 11.2980957 C45.48789074 12.58740299 49.92281259 13.7793617 54.375 14.9375 C61.18391182 16.72009065 67.87529385 18.80505012 74.56787109 20.98217773 C75.33180176 21.22911377 76.09573242 21.4760498 76.8828125 21.73046875 C77.55715332 21.95114014 78.23149414 22.17181152 78.92626953 22.39916992 C81.24830668 23.07194287 83.62941099 23.5258822 86 24 C86 64.59 86 105.18 86 147 C76.99972374 145.61534211 68.07086724 144.15850348 59.125 142.5 C57.95453125 142.28730469 56.7840625 142.07460937 55.578125 141.85546875 C49.94364728 140.81417638 44.50848716 139.58182908 39 138 C34.80378583 137.12296818 30.58991145 136.34402491 26.375 135.5625 C24.15317666 135.1496524 21.93181985 134.73428622 19.7109375 134.31640625 C18.73431152 134.13537354 17.75768555 133.95434082 16.75146484 133.76782227 C11.14437778 132.62020488 5.57675766 131.28694407 0 130 C0 87.1 0 44.2 0 0 Z " fill="#FDFDFE" transform="translate(656,1436)"/>
<path d="M0 0 C0 40.59 0 81.18 0 123 C-31 132 -31 132 -45 136 C-58.53 139.96 -72.06 143.92 -86 148 C-86 104.77 -86 61.54 -86 17 C-77.75 15.35 -69.5 13.7 -61 12 C-56.02362991 10.8757697 -56.02362991 10.8757697 -51.05566406 9.71533203 C-45.2317778 8.35195821 -39.37589827 7.13135526 -33.52441406 5.89282227 C-31.37000493 5.43644187 -29.21624001 4.97710455 -27.0625 4.51757812 C-5.81724517 0 -5.81724517 0 0 0 Z " fill="#FDFDFE" transform="translate(742,2136)"/>
<path d="M0 0 C28.38 0 56.76 0 86 0 C86 40.59 86 81.18 86 123 C67.19 124.65 48.38 126.3 29 128 C20.585 128.99 20.585 128.99 12 130 C8.04 130 4.08 130 0 130 C0 87.1 0 44.2 0 0 Z " fill="#FEFEFE" transform="translate(656,1866)"/>
<path d="M0 0 C12.296975 0.58557024 24.42773851 1.1750258 36.65234375 2.41210938 C37.94567627 2.54202271 37.94567627 2.54202271 39.26513672 2.67456055 C40.1263916 2.76133057 40.98764648 2.84810059 41.875 2.9375 C56.57608812 4.39435215 71.28090748 5.72007891 86 7 C86 47.59 86 88.18 86 130 C57.62 130 29.24 130 0 130 C0 87.1 0 44.2 0 0 Z " fill="#FDFEFE" transform="translate(656,1723)"/>
<path d="M0 0 C0 37.95 0 75.9 0 115 C-7.86022957 117.24577988 -7.86022957 117.24577988 -11.1640625 117.74609375 C-11.88722656 117.85961182 -12.61039063 117.97312988 -13.35546875 118.09008789 C-14.10441406 118.20473389 -14.85335937 118.31937988 -15.625 118.4375 C-22.09003721 119.46849356 -28.45091233 120.69001595 -34.8125 122.25390625 C-42.93956194 124.15619648 -51.1673149 125.617466 -59.375 127.125 C-60.34566406 127.30675781 -61.31632813 127.48851563 -62.31640625 127.67578125 C-63.71826172 127.93294922 -63.71826172 127.93294922 -65.1484375 128.1953125 C-65.98552246 128.35016113 -66.82260742 128.50500977 -67.68505859 128.66455078 C-70 129 -70 129 -74 129 C-74 89.07 -74 49.14 -74 8 C-65.24543958 6.83272528 -56.5933938 5.69617978 -47.8125 4.9375 C-46.02708929 4.78285813 -44.24191826 4.62541723 -42.45703125 4.46484375 C-41.69366455 4.399021 -40.93029785 4.33319824 -40.14379883 4.26538086 C-38.0290122 4.00359142 -36.06361361 3.52014657 -34 3 C-31.58552895 2.82146517 -29.16818458 2.68051897 -26.75 2.5625 C-19.49132727 2.17216719 -12.33481215 1.36987217 -5.1328125 0.40234375 C-2 0 -2 0 0 0 Z " fill="#FDFEFE" transform="translate(832,1991)"/>
<path d="M0 0 C0 37.95 0 75.9 0 115 C-34.89925107 125.7382311 -34.89925107 125.7382311 -44.61181641 128.67553711 C-46.32026745 129.1935161 -48.02792414 129.71412082 -49.73486328 130.23706055 C-52.28234129 131.01710964 -54.83224715 131.78870841 -57.3828125 132.55859375 C-58.51095871 132.9069352 -58.51095871 132.9069352 -59.66189575 133.26231384 C-60.73635452 133.58384178 -60.73635452 133.58384178 -61.83251953 133.91186523 C-62.44692902 134.0986937 -63.0613385 134.28552216 -63.69436646 134.47801208 C-67.08112756 135.24476375 -70.55434327 135.56929291 -74 136 C-74 96.07 -74 56.14 -74 15 C-38.42843511 7.45451654 -38.42843511 7.45451654 -23.58203125 4.83984375 C-18.52968617 3.93595988 -13.54664899 2.82476278 -8.55859375 1.61328125 C-1.82802548 0 -1.82802548 0 0 0 Z " fill="#FDFEFE" transform="translate(832,2117)"/>
<path d="M0 0 C7.87284255 1.12469179 7.87284255 1.12469179 10.8984375 2.05859375 C11.6085498 2.27467285 12.31866211 2.49075195 13.05029297 2.71337891 C14.20102295 3.07181885 14.20102295 3.07181885 15.375 3.4375 C17.13541589 3.97526295 18.89583262 4.51302315 20.65625 5.05078125 C21.64367187 5.3545166 22.63109375 5.65825195 23.6484375 5.97119141 C29.66252822 7.81729997 35.68347463 9.64083229 41.70391846 11.46609497 C43.8191615 12.10805348 45.93380381 12.7519573 48.04833984 13.39624023 C49.4046104 13.80847047 50.7608925 14.22066269 52.1171875 14.6328125 C53.29909668 14.99262207 54.48100586 15.35243164 55.69873047 15.72314453 C61.78515697 17.52993364 67.89533947 19.25581128 74 21 C74 58.62 74 96.24 74 135 C59.35537665 133.87349051 59.35537665 133.87349051 54.125 132.5625 C53.04605469 132.29695313 51.96710937 132.03140625 50.85546875 131.7578125 C48.70616355 131.18740866 46.56845132 130.57304689 44.4375 129.9375 C39.35846323 128.55230815 34.1966708 127.81516405 29 127 C19.17693486 125.42830958 9.65307249 123.41326812 0 121 C0 81.07 0 41.14 0 0 Z " fill="#FDFEFE" transform="translate(758,1466)"/>
<path d="M0 0 C6.45146051 0.64514605 12.45743604 1.36340727 18.7265625 2.7421875 C19.51791595 2.91122589 20.30926941 3.08026428 21.12460327 3.25442505 C23.62586357 3.78951931 26.12548942 4.33179698 28.625 4.875 C31.90824541 5.58358159 35.19216703 6.28895668 38.4765625 6.9921875 C39.68146332 7.25053375 39.68146332 7.25053375 40.91070557 7.51409912 C47.323839 8.87915273 53.75461015 10.1159071 60.20458984 11.29345703 C64.81157784 12.15108107 69.40486698 13.0809734 74 14 C74 51.62 74 89.24 74 128 C63.89073881 128 63.89073881 128 60.34375 127.59765625 C59.55871094 127.51273926 58.77367187 127.42782227 57.96484375 127.34033203 C57.15144531 127.24864746 56.33804688 127.15696289 55.5 127.0625 C49.3269281 126.39769016 43.20336777 125.87933808 37 125.625 C24.60054838 124.76392697 12.30439313 122.75777045 0 121 C0 81.07 0 41.14 0 0 Z " fill="#FDFEFE" transform="translate(758,1599)"/>
<path d="M0 0 C24.42 0 48.84 0 74 0 C74 37.62 74 75.24 74 114 C65.19290726 115.17427903 56.50982595 116.31880335 47.67578125 117.03515625 C46.68225143 117.11873886 45.68872162 117.20232147 44.66508484 117.28843689 C41.54783189 117.54989459 38.43019018 117.80631469 35.3125 118.0625 C33.21807077 118.23729274 31.12366951 118.41242101 29.02929688 118.58789062 C25.16593842 118.91098866 21.30244305 119.23230872 17.4387207 119.55102539 C11.62555656 120.03091087 5.81278977 120.51560085 0 121 C0 81.07 0 41.14 0 0 Z " fill="#FEFEFE" transform="translate(758,1866)"/>
<path d="M0 0 C16.92077465 0 16.92077465 0 25.015625 1.4296875 C31.5372855 2.46292587 38.16399548 2.7622624 44.74560547 3.21435547 C54.54294038 3.90435116 64.20632874 4.96908724 74 6 C74 43.62 74 81.24 74 120 C49.58 120 25.16 120 0 120 C0 80.4 0 40.8 0 0 Z " fill="#FEFEFE" transform="translate(758,1733)"/>
<path d="M0 0 C4.24297846 0.70716308 8.46237639 1.45052667 12.6875 2.25 C21.38896522 3.89099199 30.09599908 5.50155182 38.8034668 7.11035156 C47.5385021 8.72552615 56.26894679 10.36292752 65 12 C65 47.64 65 83.28 65 120 C48 119 48 119 43 118 C40.605815 117.84663584 38.20946606 117.7259755 35.8125 117.625 C23.83826601 116.86230994 11.91941602 115.37531723 0 114 C0 76.38 0 38.76 0 0 Z " fill="#FDFDFD" transform="translate(846,1616)"/>
<path d="M0 0 C21.45 0 42.9 0 65 0 C65 35.64 65 71.28 65 108 C53.615 108.99 53.615 108.99 42 110 C32.58003008 110.89980369 32.58003008 110.89980369 23.1628418 111.828125 C21.16498584 112.02783858 19.16647915 112.22100777 17.16796875 112.4140625 C16.02610107 112.5270166 14.8842334 112.6399707 13.70776367 112.75634766 C9.14762288 113.05601319 4.56997631 113 0 113 C0 75.71 0 38.42 0 0 Z " fill="#FDFDFD" transform="translate(846,1865)"/>
<path d="M0 0 C0 35.64 0 71.28 0 108 C-36.2660485 115.2532097 -36.2660485 115.2532097 -40.76171875 116.03515625 C-41.73560547 116.20466797 -42.70949219 116.37417969 -43.71289062 116.54882812 C-44.69451172 116.71833984 -45.67613281 116.88785156 -46.6875 117.0625 C-47.68072266 117.23587891 -48.67394531 117.40925781 -49.69726562 117.58789062 C-54.79392803 118.47176364 -59.87600084 119.26800012 -65 120 C-65 82.71 -65 45.42 -65 7 C-62.01433188 5.50716594 -58.83582486 5.44259287 -55.5546875 5.09765625 C-54.80029892 5.01557419 -54.04591034 4.93349213 -53.2686615 4.84892273 C-50.80455235 4.5824359 -48.33983981 4.32213539 -45.875 4.0625 C-45.04197357 3.9735144 -44.20894714 3.88452881 -43.35067749 3.79284668 C-7.83875917 0 -7.83875917 0 0 0 Z " fill="#FDFDFD" transform="translate(911,1983)"/>
<path d="M0 0 C8.0595581 0 15.32060157 0.250583 23.1875 1.375 C33.10031594 2.71239329 43.00017371 3.64808512 52.97729492 4.35302734 C53.96963135 4.42473145 54.96196777 4.49643555 55.984375 4.5703125 C56.85803711 4.62977051 57.73169922 4.68922852 58.63183594 4.75048828 C61 5 61 5 65 6 C65 41.31 65 76.62 65 113 C43.55 113 22.1 113 0 113 C0 75.71 0 38.42 0 0 Z " fill="#FDFDFE" transform="translate(846,1741)"/>
<path d="M0 0 C7.87486643 1.12498092 7.87486643 1.12498092 11.85864258 2.35107422 C12.74679153 2.62160614 13.63494049 2.89213806 14.55000305 3.17086792 C15.48869736 3.46252838 16.42739166 3.75418884 17.39453125 4.0546875 C18.38192795 4.35690216 19.36932465 4.65911682 20.38664246 4.9704895 C23.53011707 5.93378159 26.67133064 6.90422025 29.8125 7.875 C31.91196052 8.52001596 34.01156857 9.16455192 36.11132812 9.80859375 C39.9928796 10.99942841 43.87339274 12.19354858 47.75317383 13.39013672 C52.15776987 14.74855827 56.57368746 16.06543206 60.99662781 17.36282349 C63 18 63 18 65 19 C65 54.31 65 89.62 65 126 C47.5 123.5 47.5 123.5 40 121 C36.04 120.34 32.08 119.68 28 119 C18.76 117.02 9.52 115.04 0 113 C0 75.71 0 38.42 0 0 Z " fill="#FDFDFD" transform="translate(846,1492)"/>
<path d="M0 0 C0 35.31 0 70.62 0 107 C-12.375 110.465 -12.375 110.465 -25 114 C-32.2404389 116.19853634 -39.4721653 118.41647911 -46.69067383 120.68481445 C-48.99674459 121.40795853 -51.30484731 122.12428607 -53.61328125 122.83984375 C-54.64585808 123.16782204 -54.64585808 123.16782204 -55.69929504 123.50242615 C-59.00681305 124.52419515 -61.49184235 125 -65 125 C-65 87.71 -65 50.42 -65 12 C-28.33333333 4.22222222 -28.33333333 4.22222222 -15.60546875 1.7265625 C-12.28884319 1.1251887 -12.28884319 1.1251887 -10.2746582 0.45458984 C-6.91289857 -0.21725693 -3.42823656 0 0 0 Z " fill="#FDFDFD" transform="translate(911,2102)"/>
<path d="M0 0 C0 33.33 0 66.66 0 101 C-10.5564306 103.34587347 -20.7531878 105.51464744 -31.375 107.20703125 C-37.25704554 108.17848307 -43.0759205 109.44515537 -48.89624023 110.73046875 C-51.98903218 111.40653214 -54.823445 112 -58 112 C-58.02333058 98.19659113 -58.04091354 84.3931853 -58.05181217 70.58976078 C-58.05704166 64.18100872 -58.0641405 57.77226985 -58.07543945 51.36352539 C-58.08626599 45.18440559 -58.09227634 39.00529852 -58.09487724 32.82616997 C-58.09673192 30.4629439 -58.10035332 28.09971856 -58.10573006 25.73649788 C-58.11293738 22.43898104 -58.11399107 19.14151753 -58.11352539 15.84399414 C-58.11712067 14.85641113 -58.12071594 13.86882812 -58.12442017 12.85131836 C-58.1230455 11.95804337 -58.12167084 11.06476837 -58.12025452 10.14442444 C-58.12117631 9.36366578 -58.1220981 8.58290712 -58.12304783 7.77848911 C-58 6 -58 6 -57 5 C-55.50091776 4.78509921 -53.99325679 4.6292503 -52.484375 4.5 C-51.10185547 4.37625 -51.10185547 4.37625 -49.69140625 4.25 C-48.72074219 4.1675 -47.75007812 4.085 -46.75 4 C-44.84874464 3.83578901 -42.94769317 3.66919661 -41.046875 3.5 C-40.19963867 3.4278125 -39.35240234 3.355625 -38.47949219 3.28125 C-35.94413697 2.99366343 -33.4991876 2.50929551 -31 2 C-27.79931439 1.57335877 -24.58753871 1.26163507 -21.375 0.9375 C-20.53582031 0.84662109 -19.69664062 0.75574219 -18.83203125 0.66210938 C-12.45853407 0.01502913 -6.4815584 0 0 0 Z " fill="#FBFCFC" transform="translate(981,1976)"/>
<path d="M0 0 C0.73301834 0.13399704 1.46603668 0.26799408 2.2212677 0.40605164 C3.19472641 0.58360489 4.16818512 0.76115814 5.17114258 0.9440918 C6.61098259 1.20696236 6.61098259 1.20696236 8.07991028 1.47514343 C10.80462799 1.96488386 13.53175176 2.43507622 16.26171875 2.89453125 C17.60266602 3.12172852 17.60266602 3.12172852 18.97070312 3.35351562 C20.73060674 3.65083939 22.49099839 3.94529448 24.25195312 4.23632812 C35.57982965 6.16840048 46.72540836 8.65112674 58 11 C58 44.33 58 77.66 58 112 C44.29749552 111.40423894 32.05988029 110.77927567 18.7265625 108.6953125 C13.55997957 107.8983728 8.42406615 107.4920651 3.203125 107.2109375 C1 107 1 107 0 106 C-0.0953919 104.62123975 -0.12188622 103.23763084 -0.12025452 101.85557556 C-0.12162918 100.96230057 -0.12300385 100.06902557 -0.12442017 99.14868164 C-0.12082489 98.16109863 -0.11722961 97.17351562 -0.11352539 96.15600586 C-0.11367142 95.12198135 -0.11381744 94.08795685 -0.1139679 93.02259827 C-0.11326827 89.58665914 -0.10547358 86.15077347 -0.09765625 82.71484375 C-0.09579225 80.33972707 -0.09436826 77.96461 -0.09336853 75.5894928 C-0.08954197 69.32423856 -0.0797105 63.05900733 -0.06866455 56.79376221 C-0.0584534 50.4061311 -0.05387155 44.01849629 -0.04882812 37.63085938 C-0.03808836 25.08722974 -0.02120127 12.54361609 0 0 Z " fill="#FCFCFC" transform="translate(923,1631)"/>
<path d="M0 0 C8.13328559 2.0333214 16.00431493 4.19203615 23.9375 6.8125 C35.2140799 10.53611279 46.56007875 13.73145107 58 17 C58 50.33 58 83.66 58 118 C41.01652893 115.73553719 41.01652893 115.73553719 35 114.5 C33.824375 114.2628125 32.64875 114.025625 31.4375 113.78125 C29.14287147 113.25974352 26.86340772 112.66647752 24.60546875 112.00390625 C20.53263124 110.8698659 16.47859608 110.12880128 12.3125 109.4375 C8.1695971 108.73925794 4.08017437 108.02004359 0 107 C0 71.69 0 36.38 0 0 Z " fill="#FCFCFC" transform="translate(923,1514)"/>
<path d="M0 0 C0 33.33 0 66.66 0 101 C-8.641875 103.619375 -17.28375 106.23875 -26.1875 108.9375 C-28.90895264 109.7637085 -31.63040527 110.58991699 -34.43432617 111.44116211 C-36.59548413 112.09507522 -38.75669476 112.74881426 -40.91796875 113.40234375 C-42.03675415 113.74269653 -43.15553955 114.08304932 -44.30822754 114.43371582 C-45.38366821 114.75843872 -46.45910889 115.08316162 -47.56713867 115.41772461 C-48.49757492 115.69974228 -49.42801117 115.98175995 -50.38664246 116.27232361 C-52.89358131 116.97036825 -55.44822672 117.48964534 -58 118 C-58 83.02 -58 48.04 -58 12 C-47.95400943 8.65133648 -47.95400943 8.65133648 -43.9921875 8.0390625 C-39.25947835 7.24230456 -34.57165846 6.29370368 -29.8828125 5.2734375 C-29.17131042 5.11965637 -28.45980835 4.96587524 -27.72674561 4.80743408 C-24.77439047 4.16885244 -21.82256255 3.52799812 -18.87207031 2.88085938 C-16.68912075 2.40295241 -14.50485878 1.93148372 -12.3203125 1.4609375 C-11.03398926 1.18040527 -9.74766602 0.89987305 -8.42236328 0.61083984 C-5 0 -5 0 0 0 Z " fill="#FCFCFC" transform="translate(981,2087)"/>
<path d="M0 0 C18.81 0 37.62 0 57 0 C57 33.33 57 66.66 57 101 C48.151875 101.825 39.30375 102.65 30.1875 103.5 C27.39563232 103.76103516 24.60376465 104.02207031 21.72729492 104.29101562 C19.5200297 104.49620314 17.31275496 104.70128831 15.10546875 104.90625 C13.95485962 105.01420898 12.80425049 105.12216797 11.61877441 105.23339844 C9.97479675 105.38566895 9.97479675 105.38566895 8.29760742 105.54101562 C7.34496506 105.62984009 6.39232269 105.71866455 5.41081238 105.81018066 C3 106 3 106 0 106 C0 71.02 0 36.04 0 0 Z " fill="#FEFEFE" transform="translate(924,1865)"/>
<path d="M0 0 C18.81 1.65 37.62 3.3 57 5 C57 38.33 57 71.66 57 106 C38.19 106 19.38 106 0 106 C0 71.02 0 36.04 0 0 Z " fill="#FEFEFE" transform="translate(924,1748)"/>
<path d="M0 0 C5.35101996 4.44001986 8.67888754 8.94146982 11.61328125 15.2109375 C12.15275391 16.25314453 12.15275391 16.25314453 12.703125 17.31640625 C16.51522438 25.2514629 15.46751042 37.07363993 12.61328125 45.2109375 C7.13467024 57.77209498 -0.66121109 65.13828686 -13.38671875 70.2109375 C-24.29251813 73.10751781 -36.70057128 72.04773225 -46.51171875 66.5234375 C-56.11583888 60.33874094 -62.87799203 51.96352149 -65.76171875 40.7109375 C-67.62503508 29.76395403 -66.59542739 19.02277518 -60.65625 9.41015625 C-54.13708543 0.83504757 -46.19902301 -5.83598643 -35.63671875 -8.4765625 C-22.11682904 -9.77655189 -11.01360022 -8.25569378 0 0 Z " fill="#F8FAFA" transform="translate(861.38671875,524.7890625)"/>
<path d="M0 0 C1.66554139 1.17725014 3.28022579 2.42588918 4.8828125 3.6875 C8.4145761 1.99256881 11.61532809 -0.0407378 14.8828125 -2.19140625 C20.39600516 -5.28180917 27.1476243 -4.99332862 33.21875 -3.88671875 C41.12063419 -1.62705713 47.44014266 2.76358193 51.48608398 9.95629883 C54.67764928 16.49839416 54.51763076 22.6297647 54.37109375 29.7890625 C54.36401901 31.10667572 54.35694427 32.42428894 54.34965515 33.78182983 C54.3307463 37.25100904 54.28179183 40.719108 54.22613525 44.18786621 C54.17458906 47.74098098 54.15206647 51.29427375 54.12695312 54.84765625 C54.07365136 61.79475394 53.98585332 68.74096358 53.8828125 75.6875 C49.5928125 75.6875 45.3028125 75.6875 40.8828125 75.6875 C40.89441406 73.93687256 40.90601563 72.18624512 40.91796875 70.38256836 C40.9470254 64.57888064 40.93904217 58.77586877 40.90615845 52.97225094 C40.88757291 49.45542333 40.88355746 45.93987096 40.91357422 42.4230957 C40.94748436 38.37362047 40.91670133 34.32682343 40.8828125 30.27734375 C40.902229 29.02291977 40.92164551 27.76849579 40.94165039 26.47605896 C40.89846971 20.01495947 40.89846971 20.01495947 38.2175293 14.31228638 C34.50777077 10.84932444 31.81885734 9.33386301 26.6953125 9.0625 C22.72454014 9.37918737 19.90517161 9.93990081 16.8828125 12.6875 C12.82277814 18.53826958 13.40705328 24.90001624 13.37109375 31.7421875 C13.35314255 32.99887238 13.33519135 34.25555725 13.31669617 35.55032349 C13.27180339 38.87445624 13.2394521 42.19822339 13.21325684 45.52252197 C13.18335916 48.92139922 13.13686077 52.32004598 13.09179688 55.71875 C13.0068959 62.37491409 12.9400703 69.03104303 12.8828125 75.6875 C8.2628125 75.6875 3.6428125 75.6875 -1.1171875 75.6875 C-1.1469165 73.14458252 -1.1469165 73.14458252 -1.17724609 70.55029297 C-1.24515624 64.9343201 -1.32194193 59.31851498 -1.40471458 53.70274162 C-1.45455252 50.29959016 -1.50088294 46.89646787 -1.5390625 43.49316406 C-1.58316325 39.57599738 -1.6427628 35.65913868 -1.703125 31.7421875 C-1.71467621 30.52634979 -1.72622742 29.31051208 -1.73812866 28.05783081 C-1.75799835 26.91710114 -1.77786804 25.77637146 -1.79833984 24.60107422 C-1.81166351 23.60179901 -1.82498718 22.6025238 -1.8387146 21.57296753 C-2.15019543 18.34547999 -2.89502821 15.68732713 -4.1171875 12.6875 C-6.03482924 11.3112206 -6.03482924 11.3112206 -8.1171875 10.6875 C-8.7771875 10.3575 -9.4371875 10.0275 -10.1171875 9.6875 C-14.41931195 9.06616941 -18.45114237 8.71713321 -22.296875 10.95703125 C-24.72250515 13.02535903 -26.6839572 14.8210394 -28.1171875 17.6875 C-28.23688811 19.53531542 -28.2944571 21.3872936 -28.32250977 23.23876953 C-28.34245499 24.39982208 -28.36240021 25.56087463 -28.38294983 26.7571106 C-28.40801857 28.64464554 -28.40801857 28.64464554 -28.43359375 30.5703125 C-28.45437485 31.85485321 -28.47515594 33.13939392 -28.49656677 34.46286011 C-28.55177799 37.87899359 -28.60119138 41.29518745 -28.64941406 44.71142578 C-28.69963607 48.19699481 -28.75531847 51.68247609 -28.81054688 55.16796875 C-28.9181168 62.00773805 -29.0190598 68.84758878 -29.1171875 75.6875 C-33.4071875 75.6875 -37.6971875 75.6875 -42.1171875 75.6875 C-42.18513179 67.98540475 -42.24010047 60.28342214 -42.27262402 52.58109951 C-42.28823865 49.00406643 -42.3093991 45.42725014 -42.34350586 41.8503418 C-42.37625068 38.39439341 -42.39407208 34.93865273 -42.40181923 31.48256111 C-42.41000914 29.53114592 -42.43340428 27.57981356 -42.45707703 25.62852478 C-42.4590285 15.28765319 -40.5595829 9.36173438 -33.41796875 1.7109375 C-24.00257859 -6.56949052 -10.39723055 -6.44551562 0 0 Z " fill="#F6F8F9" transform="translate(423.1171875,520.3125)"/>
<path d="M0 0 C4.29 0 8.58 0 13 0 C13.01458252 1.66498535 13.02916504 3.3299707 13.04418945 5.04541016 C13.10220949 11.22922117 13.17944325 17.41266948 13.26245117 23.59619141 C13.29732002 26.27136214 13.32371881 28.94623638 13.34643555 31.62158203 C13.38001267 35.46937788 13.43233279 39.31653489 13.48828125 43.1640625 C13.49467117 44.35802643 13.5010611 45.55199036 13.50764465 46.78213501 C13.63457591 53.96874975 14.24343432 58.72657826 19 64.375 C23.58132332 66.85655013 27.90229226 66.62185893 33 66 C36.40904645 64.72160758 37.54249072 63.66091686 39.59301758 60.69873047 C41.69842784 55.16394556 41.48083996 49.82075117 41.51171875 43.9453125 C41.52966995 42.68862762 41.54762115 41.43194275 41.56611633 40.13717651 C41.61100911 36.81304376 41.6433604 33.48927661 41.66955566 30.16497803 C41.69945334 26.76610078 41.74595173 23.36745402 41.79101562 19.96875 C41.8759166 13.31258591 41.9427422 6.65645697 42 0 C46.29 0 50.58 0 55 0 C55.01401855 2.54291748 55.01401855 2.54291748 55.02832031 5.13720703 C55.0639145 10.75327354 55.11775456 16.36896912 55.18390274 21.98475838 C55.22332676 25.38796983 55.25553954 28.79092454 55.27099609 32.19433594 C55.28910825 36.11166247 55.33908218 40.02827759 55.390625 43.9453125 C55.39185364 45.16115021 55.39308228 46.37698792 55.39434814 47.62966919 C55.50480792 54.01980692 55.63075695 58.17364168 60 63 C63.02495471 65.91383393 65.20644035 66.45329345 69.375 66.5 C73.10195433 66.39550595 75.59493505 66.13526072 78.5625 63.8125 C82.30251991 59.49709241 83.2423489 55.9399065 83.31884766 50.29174805 C83.33871735 49.17096359 83.35858704 48.05017914 83.37905884 46.89543152 C83.39061005 45.6963063 83.40216125 44.49718109 83.4140625 43.26171875 C83.43342865 42.02581497 83.4527948 40.78991119 83.4727478 39.51655579 C83.52232555 36.24348033 83.56362829 32.970439 83.60089111 29.69720459 C83.64102019 26.35206543 83.69223452 23.00711627 83.7421875 19.66210938 C83.83816821 13.10817221 83.92222625 6.55417749 84 0 C88.29 0 92.58 0 97 0 C97.09080596 7.38951001 97.16400435 14.77870895 97.20724869 22.16866112 C97.22801657 25.60109768 97.25613212 29.03312875 97.30175781 32.46533203 C97.35402097 36.42214908 97.37303456 40.37880889 97.390625 44.3359375 C97.41127014 45.55300385 97.43191528 46.77007019 97.45318604 48.02401733 C97.45545382 56.73449385 96.07275164 64.21851983 90.75 71.3125 C82.83873166 79.04396679 75.47816147 80.46008087 64.59375 80.42578125 C59.07067194 79.77141657 55.35417231 77.30198529 51 74 C50.01 73.34 49.02 72.68 48 72 C47.49210938 72.40992188 46.98421875 72.81984375 46.4609375 73.2421875 C45.77257812 73.78101563 45.08421875 74.31984375 44.375 74.875 C43.70210937 75.40867187 43.02921875 75.94234375 42.3359375 76.4921875 C35.71138085 80.76823911 28.62120442 80.60559693 21 80 C13.65860806 78.39333755 8.30269986 74.30088013 4.20710754 68.10946655 C-0.33524636 60.17152955 -0.41058634 51.68613476 -0.29296875 42.7734375 C-0.28872391 41.54460846 -0.28447906 40.31577942 -0.28010559 39.04971313 C-0.2634279 35.1579111 -0.22579504 31.26664327 -0.1875 27.375 C-0.17243911 24.72266377 -0.15875317 22.07031936 -0.14648438 19.41796875 C-0.11355998 12.94510935 -0.06185268 6.47264499 0 0 Z " fill="#F8F9FA" transform="translate(690,516)"/>
<path d="M0 0 C105.93 0 211.86 0 321 0 C321 3.63 321 7.26 321 11 C215.07 11 109.14 11 0 11 C0 7.37 0 3.74 0 0 Z " fill="#F5B317" transform="translate(660,651)"/>
<path d="M0 0 C0.82338867 -0.00161133 1.64677734 -0.00322266 2.49511719 -0.00488281 C8.1071882 0.09658091 13.26221253 0.96991871 18.6875 2.375 C19.99654297 2.69210937 19.99654297 2.69210937 21.33203125 3.015625 C32.59429225 6.1812335 41.98754914 11.60667485 50.6875 19.375 C51.45964844 20.05304687 52.23179687 20.73109375 53.02734375 21.4296875 C63.89465911 31.57251517 72.70526013 46.9195091 73.89624023 62.02197266 C74.66753632 85.32680642 71.90814671 102.65310652 56.25 120.625 C42.87620269 134.90243227 25.95916929 144.60236469 6.03125 145.74609375 C-15.8320711 146.29480443 -35.02786305 139.20958852 -51.0625 124 C-64.5450899 109.71295963 -71.72824014 90.69453995 -71.52734375 71.140625 C-70.3926969 51.25336021 -63.35938621 33.17035129 -48.67578125 19.28125 C-43.54923331 15.14611711 -37.9633204 11.74017017 -32.3125 8.375 C-31.590625 7.94058594 -30.86875 7.50617187 -30.125 7.05859375 C-20.64508004 1.84872395 -10.67650591 0.01980799 0 0 Z M-50.5625 32.0625 C-61.29072646 46.33742966 -65.83045318 62.59623335 -64.3125 80.375 C-62.37470428 92.37731615 -57.64717827 103.69249668 -50.3125 113.375 C-49.82394531 114.04015625 -49.33539063 114.7053125 -48.83203125 115.390625 C-38.57814311 128.25229209 -22.30087272 135.93993497 -6.3125 138.375 C11.29689374 139.96791914 27.51881016 135.45464238 41.625 124.875 C42.99523033 123.72724249 44.35067567 122.5614987 45.6875 121.375 C46.28820312 120.86710938 46.88890625 120.35921875 47.5078125 119.8359375 C57.82766054 110.44163637 66.08548422 94.321638 66.79418945 80.2578125 C66.85838214 77.71261067 66.87311688 75.17098446 66.875 72.625 C66.88724609 71.7690625 66.89949219 70.913125 66.91210938 70.03125 C66.95094008 52.94573762 59.10885061 38.21955817 47.6875 25.8125 C35.09342916 13.8332912 18.84498697 7.44466353 1.5 6.8125 C-18.7221212 7.70707579 -37.37108822 16.64724868 -50.5625 32.0625 Z " fill="#F3F5F7" transform="translate(269.3125,516.625)"/>
<path d="M0 0 C7.34882888 5.82726519 11.82288005 13.61820497 14.0234375 22.65625 C14.40109702 26.53025263 14.37513819 30.36459109 14.31640625 34.25390625 C14.31216141 35.32877792 14.30791656 36.4036496 14.30354309 37.51109314 C14.28687089 40.91390998 14.24923973 44.31611488 14.2109375 47.71875 C14.19587587 50.03840285 14.18219006 52.35806507 14.16992188 54.67773438 C14.13700487 60.33747213 14.08530201 65.99675764 14.0234375 71.65625 C10.0634375 71.65625 6.1034375 71.65625 2.0234375 71.65625 C2.0234375 64.72625 2.0234375 57.79625 2.0234375 50.65625 C-11.1765625 50.65625 -24.3765625 50.65625 -37.9765625 50.65625 C-37.9765625 46.69625 -37.9765625 42.73625 -37.9765625 38.65625 C-24.7765625 38.65625 -11.5765625 38.65625 2.0234375 38.65625 C0.97970236 23.73620064 0.97970236 23.73620064 -7.2265625 12.28125 C-15.26900258 6.20627381 -22.90777365 4.38333106 -32.9765625 5.65625 C-35.97512072 6.59961663 -38.39705744 7.87516317 -40.9765625 9.65625 C-41.8840625 10.275 -42.7915625 10.89375 -43.7265625 11.53125 C-49.39731169 16.88695756 -51.9733106 22.84763434 -52.29541016 30.56005859 C-52.3367402 32.47475188 -52.36794244 34.38968252 -52.390625 36.3046875 C-52.40999115 37.31721588 -52.4293573 38.32974426 -52.4493103 39.37295532 C-52.50886973 42.59230242 -52.55539698 45.81168574 -52.6015625 49.03125 C-52.63976401 51.22006728 -52.678817 53.40886988 -52.71875 55.59765625 C-52.81455192 60.95040093 -52.89867025 66.30321596 -52.9765625 71.65625 C-57.2665625 71.65625 -61.5565625 71.65625 -65.9765625 71.65625 C-66.051144 65.14585834 -66.10536804 58.6357196 -66.14135742 52.125 C-66.15637287 49.91369286 -66.17679141 47.70241515 -66.20288086 45.49121094 C-66.23958404 42.29875391 -66.2563618 39.10669325 -66.26953125 35.9140625 C-66.28501511 34.93760773 -66.30049896 33.96115295 -66.31645203 32.95510864 C-66.31925892 21.30826182 -62.95202204 11.99802124 -54.9375 3.4921875 C-39.09121519 -11.45819428 -17.8311244 -12.12234544 0 0 Z " fill="#FBFCFC" transform="translate(662.9765625,524.34375)"/>
<path d="M0 0 C70.62 0 141.24 0 214 0 C214 3.96 214 7.92 214 12 C143.38 12 72.76 12 0 12 C0 8.04 0 4.08 0 0 Z " fill="#EBAD19" transform="translate(659,631)"/>
<path d="M0 0 C1.31180235 0.88761205 2.60689657 1.80100356 3.875 2.75 C4.761875 3.28625 5.64875 3.8225 6.5625 4.375 C12.26276412 10.22932531 15.25588412 16.55742795 15.625 24.75 C15.21440191 33.45849898 11.84002089 40.33998072 5.4375 46.25 C-2.67020189 52.30888738 -10.10242644 52.73814106 -20.125 51.75 C-23.1876548 50.84375161 -25.53791066 49.59976888 -28.125 47.75 C-28.99125 47.21375 -29.8575 46.6775 -30.75 46.125 C-36.29198027 40.58301973 -40.22188127 33.57460631 -40.4375 25.6875 C-40.31899022 17.52109858 -37.98424958 11.34862997 -32.375 5.375 C-23.41592137 -2.71601434 -11.35773666 -6.1449731 0 0 Z " fill="#03304F" transform="translate(848.125,531.25)"/>
<path d="M0 0 C6.13261919 3.206966 10.44076379 6.68916641 13.0625 13.3125 C15.47680573 23.50998716 14.2451205 32.49598667 9.25 41.625 C5.44494514 46.29978168 0.92374366 49.01000141 -4.9375 50.3125 C-14.26343925 51.05389266 -20.73555696 50.0379548 -28.1875 44.125 C-33.95186462 38.70694411 -35.0281823 33.679047 -35.3359375 26.08886719 C-35.47938901 17.72923043 -35.04952937 11.60480623 -29.06640625 5.359375 C-20.88822728 -2.24679524 -10.61193976 -4.45016829 0 0 Z " fill="#ECAE18" transform="translate(465.9375,612.6875)"/>
<path d="M0 0 C0.69287109 0.00451172 1.38574219 0.00902344 2.09960938 0.01367188 C3.79561068 0.02536844 5.49156703 0.04330076 7.1875 0.0625 C7.1875 4.3525 7.1875 8.6425 7.1875 13.0625 C6.20910156 13.07667969 5.23070312 13.09085938 4.22265625 13.10546875 C-3.0406949 13.36972046 -8.86447012 13.76381342 -15.078125 17.90625 C-16.8125 19.0625 -16.8125 19.0625 -19.8125 20.0625 C-20.83901373 21.77769747 -20.83901373 21.77769747 -21.8125 24.0625 C-22.49152434 25.25486674 -23.17972645 26.44203458 -23.875 27.625 C-25.86331818 30.89773224 -25.86331818 30.89773224 -26.8125 34.0625 C-15.5925 34.0625 -4.3725 34.0625 7.1875 34.0625 C7.1875 38.3525 7.1875 42.6425 7.1875 47.0625 C-4.0325 47.0625 -15.2525 47.0625 -26.8125 47.0625 C-21.25979262 58.23002271 -21.25979262 58.23002271 -11.4453125 65.3515625 C-5.41408816 66.98017204 0.97328578 66.91166956 7.1875 67.0625 C7.1875 71.3525 7.1875 75.6425 7.1875 80.0625 C-7.09985813 80.42369726 -18.79623539 79.05619729 -29.625 68.875 C-38.23182278 59.7511596 -41.31829165 49.22114234 -41.125 36.88671875 C-40.16373787 25.12327343 -34.22182857 15.70124481 -25.375 8.1875 C-17.24507073 1.85564192 -10.28218072 -0.1279123 0 0 Z " fill="#F6F8F9" transform="translate(530.8125,515.9375)"/>
<path d="M0 0 C0.9796875 0.00322266 1.959375 0.00644531 2.96875 0.00976562 C3.98453125 0.01814453 5.0003125 0.02652344 6.046875 0.03515625 C7.59375 0.04192383 7.59375 0.04192383 9.171875 0.04882812 C11.71356654 0.06059522 14.25522818 0.07853015 16.796875 0.09765625 C16.796875 4.38765625 16.796875 8.67765625 16.796875 13.09765625 C15.35054687 13.1234375 13.90421875 13.14921875 12.4140625 13.17578125 C10.49997048 13.23207807 8.58590915 13.28942505 6.671875 13.34765625 C5.24488281 13.36892578 5.24488281 13.36892578 3.7890625 13.390625 C-1.97780125 13.59086332 -5.74666937 14.07157484 -10.203125 18.09765625 C-13.42333807 22.07314318 -13.7236062 25.96175132 -13.890625 30.91015625 C-13.99375 33.28203125 -14.096875 35.65390625 -14.203125 38.09765625 C-4.633125 38.09765625 4.936875 38.09765625 14.796875 38.09765625 C14.796875 42.38765625 14.796875 46.67765625 14.796875 51.09765625 C5.226875 51.09765625 -4.343125 51.09765625 -14.203125 51.09765625 C-14.203125 60.66765625 -14.203125 70.23765625 -14.203125 80.09765625 C-18.493125 80.09765625 -22.783125 80.09765625 -27.203125 80.09765625 C-27.31661735 72.57782767 -27.40812144 65.05832364 -27.46218586 57.5378437 C-27.48814997 54.04475917 -27.52330026 50.55229685 -27.58032227 47.05957031 C-27.64563715 43.03314649 -27.66941393 39.00736409 -27.69140625 34.98046875 C-27.71721268 33.74152863 -27.7430191 32.5025885 -27.76960754 31.22610474 C-27.7724697 22.27961493 -26.04147356 15.56845998 -20.140625 8.6953125 C-19.50125 8.18871094 -18.861875 7.68210937 -18.203125 7.16015625 C-17.51734375 6.61230469 -16.8315625 6.06445312 -16.125 5.5 C-10.66358232 1.51494116 -6.74650874 -0.03922389 0 0 Z " fill="#F7F8F9" transform="translate(964.203125,515.90234375)"/>
<path d="M0 0 C7.1775 -0.12375 7.1775 -0.12375 14.5 -0.25 C15.99337891 -0.28641602 17.48675781 -0.32283203 19.02539062 -0.36035156 C27.5246627 -0.43121693 33.58351399 -0.20659361 39.97265625 5.87890625 C42.11545349 10.30300854 41.57538653 15.22690717 41 20 C38.49715542 24.90557539 34.95918996 26.18798829 30 28 C30.845625 28.94875 31.69125 29.8975 32.5625 30.875 C37.54928348 36.70278497 42.36442621 42.73925259 45 50 C40.65813266 51.09114991 37.30637539 51.33492693 33 50 C28.3666545 45.6755442 24.7474324 39.68643189 22 34 C22 33.34 22 32.68 22 32 C17.87477326 29.42173329 15.45556967 29.68194621 10 29 C10 35.93 10 42.86 10 50 C6.7 50 3.4 50 0 50 C0 33.5 0 17 0 0 Z " fill="#EFB018" transform="translate(582,612)"/>
<path d="M0 0 C15.51 0 31.02 0 47 0 C47 4.29 47 8.58 47 13 C41.39 13 35.78 13 30 13 C30 35.11 30 57.22 30 80 C25.71 80 21.42 80 17 80 C17 57.89 17 35.78 17 13 C11.39 13 5.78 13 0 13 C0 8.71 0 4.42 0 0 Z " fill="#F7F8F9" transform="translate(551,516)"/>
<path d="M0 0 C39.93 0 79.86 0 121 0 C121 3.96 121 7.92 121 12 C81.07 12 41.14 12 0 12 C0 8.04 0 4.08 0 0 Z " fill="#EDAF18" transform="translate(659,611)"/>
<path d="M0 0 C4.29 0 8.58 0 13 0 C13.0093457 1.72557129 13.01869141 3.45114258 13.02832031 5.22900391 C13.06391171 10.94485156 13.11775007 16.66033463 13.18390274 22.37590981 C13.22332995 25.83965511 13.25554121 29.30314804 13.27099609 32.76708984 C13.28910553 36.75390937 13.33907812 40.74002956 13.390625 44.7265625 C13.39185364 45.96427399 13.39308228 47.20198547 13.39434814 48.47720337 C13.48317356 57.06880407 13.48317356 57.06880407 18 64 C20.87417003 65.98632611 23.31357775 66.28129145 26.765625 66.4140625 C27.65507813 66.45273437 28.54453125 66.49140625 29.4609375 66.53125 C30.38132812 66.5621875 31.30171875 66.593125 32.25 66.625 C33.18585937 66.66367187 34.12171875 66.70234375 35.0859375 66.7421875 C37.39030796 66.83624344 39.6951266 66.91920186 42 67 C42 71.29 42 75.58 42 80 C38.35289248 80.13597335 34.71093729 80.2345895 31.0625 80.3125 C30.04091797 80.35439453 29.01933594 80.39628906 27.96679688 80.43945312 C19.50265415 80.57466307 14.12236158 78.50051382 7.6953125 73.04296875 C7.17710937 72.43066406 6.65890625 71.81835938 6.125 71.1875 C5.59132813 70.58292969 5.05765625 69.97835937 4.5078125 69.35546875 C-0.47386702 61.57320773 -0.4044795 54.30936837 -0.29296875 45.3125 C-0.28872391 44.01425293 -0.28447906 42.71600586 -0.28010559 41.37841797 C-0.26873422 37.95227243 -0.23933543 34.52651766 -0.20599365 31.1005249 C-0.1751248 27.5944141 -0.1615646 24.08823922 -0.14648438 20.58203125 C-0.11445666 13.72117894 -0.06175344 6.86064855 0 0 Z " fill="#F5F7F8" transform="translate(883,516)"/>
<path d="M0 0 C3.96 0 7.92 0 12 0 C12.70125 1.835625 13.4025 3.67125 14.125 5.5625 C17.70118773 14.85858463 21.41724424 24.09812698 25.16015625 33.328125 C25.89844018 35.15624892 26.63672145 36.98437391 27.375 38.8125 C27.73311768 39.69107666 28.09123535 40.56965332 28.46020508 41.47485352 C28.79044678 42.29397217 29.12068848 43.11309082 29.4609375 43.95703125 C29.75790527 44.68897705 30.05487305 45.42092285 30.36083984 46.17504883 C31 48 31 48 31 50 C27.37 50 23.74 50 20 50 C18.68 46.7 17.36 43.4 16 40 C9.07 39.67 2.14 39.34 -5 39 C-5.66 41.97 -6.32 44.94 -7 48 C-7.33 48.66 -7.66 49.32 -8 50 C-11.63 50 -15.26 50 -19 50 C-17.43394042 44.25778154 -15.58766066 38.88668366 -13.1875 33.4375 C-10.52310013 27.38144471 -8.27613401 21.25756905 -6.12329102 15.00390625 C-4.34150174 9.86456337 -2.32657923 4.92160992 0 0 Z " fill="#ECAE18" transform="translate(545,612)"/>
<path d="M0 0 C0.69480469 -0.01611328 1.38960938 -0.03222656 2.10546875 -0.04882812 C7.62776727 -0.05402803 11.5489574 1.17378556 15.8046875 4.70703125 C18.1288372 7.4641108 19.10229716 9.06730934 19.4375 12.6875 C19.334375 13.55375 19.23125 14.42 19.125 15.3125 C15.74653287 15.59773644 12.49218931 15.76943684 9.125 15.3125 C7.125 12.875 7.125 12.875 6.125 10.3125 C3.77153604 9.13576802 2.2443967 9.14626134 -0.375 9.125 C-1.1690625 9.11082031 -1.963125 9.09664062 -2.78125 9.08203125 C-5.09533317 9.11583697 -5.09533317 9.11583697 -6.875 11.3125 C-7.04181109 14.39597826 -7.04181109 14.39597826 -6.875 17.3125 C-5.8128125 17.55484375 -4.750625 17.7971875 -3.65625 18.046875 C12.89135972 21.92558777 12.89135972 21.92558777 19.625 27.3125 C22.06993975 32.2023795 22.07122684 36.97408587 21.125 42.3125 C18.77132725 46.71614579 15.66310413 49.31971974 11.125 51.3125 C3.09510488 53.271011 -5.66778675 53.63682795 -12.875 49.3125 C-16.23121272 46.1979346 -18.56451855 42.72048307 -19.875 38.3125 C-19.875 37.3225 -19.875 36.3325 -19.875 35.3125 C-16.40174819 34.1547494 -13.51432552 34.24383348 -9.875 34.3125 C-8.8984375 36.10286458 -7.921875 37.89322917 -6.9453125 39.68359375 C-5.96089976 41.47868315 -5.96089976 41.47868315 -3.875 42.3125 C-1.57089956 42.54854169 -1.57089956 42.54854169 1 42.5625 C1.86367188 42.58828125 2.72734375 42.6140625 3.6171875 42.640625 C6.62354642 42.24726963 7.96736692 41.41544653 10.125 39.3125 C10.45925735 36.68624861 10.45925735 36.68624861 10.125 34.3125 C5.97439382 32.37555045 2.0123545 30.98138459 -2.4375 29.875 C-8.27356429 28.34593514 -12.94545878 26.06931306 -16.875 21.3125 C-18.24112444 17.21412668 -18.63372494 13.58830501 -17.875 9.3125 C-13.54691576 1.82646505 -8.37447164 -0.03841501 0 0 Z " fill="#ECAE18" transform="translate(402.875,610.6875)"/>
<path d="M0 0 C6.76174881 3.6923707 10.91768085 8.60426923 14.9375 15 C17.98037425 19.91192745 17.98037425 19.91192745 21.6875 24.3125 C22.35136719 23.27609375 23.01523437 22.2396875 23.69921875 21.171875 C24.59070729 19.80179788 25.48265894 18.43202202 26.375 17.0625 C26.81005859 16.38058594 27.24511719 15.69867187 27.69335938 14.99609375 C30.27268588 11.06023257 32.6556111 7.90022772 36.6875 5.3125 C42.04462519 4.62125804 45.5573205 5.09541796 50.08984375 8.05859375 C55.66691835 12.43571098 58.16168798 17.48976333 59.6875 24.3125 C59.6875 25.6325 59.6875 26.9525 59.6875 28.3125 C57.7075 28.3125 55.7275 28.3125 53.6875 28.3125 C53.44 27.11625 53.1925 25.92 52.9375 24.6875 C51.73913402 19.92779285 49.87828373 15.97447386 45.875 12.9375 C42.78431682 12.05444766 39.8802746 12.18970098 36.6875 12.3125 C36.42839844 13.01761719 36.16929687 13.72273437 35.90234375 14.44921875 C33.38852627 20.37406832 30.17119329 26.846214 23.99609375 29.4453125 C20.66456331 29.80673027 18.77420108 29.64887058 15.6875 28.3125 C12.34335214 24.67928173 10.08046368 20.60995542 7.6875 16.3125 C4.70373482 11.96257268 1.78580201 9.011934 -3.3125 7.3125 C-7.91099327 6.62376954 -12.23609132 6.25364422 -16.47265625 8.4140625 C-21.87776699 12.7060188 -24.10531598 17.98618882 -25 24.75 C-25.1546875 26.5134375 -25.1546875 26.5134375 -25.3125 28.3125 C-28.6125 28.3125 -31.9125 28.3125 -35.3125 28.3125 C-34.59056477 18.56637446 -31.59295544 10.07163887 -24.3125 3.3125 C-17.08103465 -2.07565065 -8.47678379 -4.05838297 0 0 Z " fill="#F1F3F5" transform="translate(260.3125,558.6875)"/>
<path d="M0 0 C3.3 0 6.6 0 10 0 C10.15855469 0.78503906 10.31710938 1.57007813 10.48046875 2.37890625 C12.23660856 10.28638663 13.97251287 16.31500858 21 21 C26.54490574 21.85432622 32.2901928 22.09149488 37.125 18.9375 C40.41808231 16.14686736 42.36624457 12.86176372 44.5546875 9.20654297 C49.73831492 0.62820303 49.73831492 0.62820303 53.80078125 -1.39453125 C57.20164323 -1.74731776 58.93101405 -1.53449297 62 0 C66.08649738 4.40084333 69.0993408 9.29802239 71 15 C77.08310646 16.25432631 77.08310646 16.25432631 82.875 14.5625 C86.44639902 10.25581294 87.70677151 5.36450337 89 0 C90.98 0 92.96 0 95 0 C94.24675338 7.38181689 92.2494832 13.60469782 87 19 C83.56239292 21.62321139 80.74655747 22.89522 76.4375 23.5 C71.89569492 22.83937381 68.72675769 21.02242868 65.70678711 17.48535156 C64.49874689 15.81256621 63.36299645 14.11236032 62.25 12.375 C59.40909509 7.96677284 59.40909509 7.96677284 56 4 C55.41992188 4.92941406 54.83984375 5.85882812 54.2421875 6.81640625 C41.84851194 26.52115229 41.84851194 26.52115229 31 30 C24.6650253 31.09024336 19.57475596 30.84534055 14.0625 27.375 C6.0679444 21.16983952 1.53421349 13.43467236 0.25 3.375 C0.1675 2.26125 0.085 1.1475 0 0 Z " fill="#F3F5F6" transform="translate(225,592)"/>
<path d="M0 0 C4.54261227 2.23000966 6.78799868 4.50015732 9 9 C9.93407307 16.04341588 10.01259691 23.32436763 6.18359375 29.51171875 C3.69892227 32.63600864 1.6327989 33.73064372 -2.296875 34.37890625 C-6.99684813 34.71360131 -10.22745449 34.38924063 -14 31.4375 C-18.29133874 27.11586946 -19.05160454 22.41028565 -19.3125 16.5 C-19.14103464 10.56931578 -17.34796491 6.54522806 -13.4375 2.0625 C-9.36390901 -1.00539147 -4.86227029 -0.8538621 0 0 Z " fill="#042F4B" transform="translate(460,620)"/>
<path d="M0 0 C3.3 0 6.6 0 10 0 C10 13.53 10 27.06 10 41 C18.25 41 26.5 41 35 41 C35 43.64 35 46.28 35 49 C23.45 49 11.9 49 0 49 C0 32.83 0 16.66 0 0 Z " fill="#F2B117" transform="translate(488,613)"/>
<path d="M0 0 C3.89205193 -0.77268678 7.13916506 -1.01840922 11 0 C15.14940957 4.2999402 18.11146596 9.33439788 20 15 C26.08310646 16.25432631 26.08310646 16.25432631 31.875 14.5625 C35.44639902 10.25581294 36.70677151 5.36450337 38 0 C39.98 0 41.96 0 44 0 C43.24675338 7.38181689 41.2494832 13.60469782 36 19 C32.56239292 21.62321139 29.74655747 22.89522 25.4375 23.5 C20.00498746 22.70981636 16.93365319 20.13341155 13.48046875 15.94140625 C12.70473306 14.82293406 11.94043883 13.69644401 11.1875 12.5625 C10.59678711 11.72235352 10.59678711 11.72235352 9.99414062 10.86523438 C7.78704265 7.6208382 6.44604661 4.91204813 6 1 C4.02 1 2.04 1 0 1 C0 0.67 0 0.34 0 0 Z " fill="#EBEFF1" transform="translate(276,592)"/>
<path d="M0 0 C2.56364483 -0.10845031 5.12266279 -0.18749744 7.6875 -0.25 C8.40873047 -0.28351562 9.12996094 -0.31703125 9.87304688 -0.3515625 C13.72879847 -0.42198719 15.61494525 -0.22814369 19.01953125 1.7890625 C21 4 21 4 21 7.625 C20 11 20 11 17 13 C15.09887695 13.22705078 15.09887695 13.22705078 12.98828125 13.1953125 C12.23095703 13.18886719 11.47363281 13.18242188 10.69335938 13.17578125 C9.90767578 13.15902344 9.12199219 13.14226563 8.3125 13.125 C7.51521484 13.11597656 6.71792969 13.10695313 5.89648438 13.09765625 C3.930861 13.07411585 1.96539225 13.03824547 0 13 C0 8.71 0 4.42 0 0 Z " fill="#0D3449" transform="translate(592,620)"/>
<path d="M0 0 C3.11494689 2.56157524 3.98547054 5.27219254 5.1875 9.0625 C5.53167969 10.12597656 5.87585938 11.18945312 6.23046875 12.28515625 C7 15 7 15 7 17 C3.04 17 -0.92 17 -5 17 C-4.46246904 10.81839396 -2.45417612 5.673142 0 0 Z " fill="#0C334A" transform="translate(550,625)"/>
</svg>
